<?xml version="1.0" encoding="iso-8859-1"?>
<!-- Generator: Adobe Illustrator 16.0.0, SVG Export Plug-In . SVG Version: 6.00 Build 0)  -->
<!DOCTYPE svg PUBLIC "-//W3C//DTD SVG 1.1//EN" "http://www.w3.org/Graphics/SVG/1.1/DTD/svg11.dtd">
<svg version="1.1" id="Capa_1" xmlns="http://www.w3.org/2000/svg" xmlns:xlink="http://www.w3.org/1999/xlink" x="0px" y="0px"
	 width="976.236px" height="976.236px" viewBox="0 0 976.236 976.236" style="enable-background:new 0 0 976.236 976.236;"
	 xml:space="preserve">
<g>
	<g>
		<g>
			<path d="M164.268,455.568c-5.4-28.601-8.1-59.4-8.1-92.2c0-76.9,14.9-143.3,44.4-197.4c2.7-5,5.6-9.8,8.5-14.6
				c-56.7,37.2-133.9,116-154.8,276c-34,260.8-130.6,506.5,63.2,506.5C265.768,933.868,127.868,655.769,164.268,455.568z"/>
			<path d="M921.969,427.368c-21.2-162.8-100.8-241.5-157.7-277.8c3.4,5.4,6.6,10.9,9.7,16.5c29.5,54,44.399,120.4,44.399,197.3
				c0,31-2.399,60.2-7.3,87.5c39.4,200.5-101.8,482.9,47.7,482.9C1052.568,933.868,955.969,688.168,921.969,427.368z"/>
			<path d="M492.068,42.368c-3.201,0-6.4,0-9.6,0c-24,0-133,4.7-210.6,85c-45.8,47.4-80.8,121.2-80.8,236.1c0,4.5,0.1,8.9,0.2,13.3
				c1.8,76.3,19.6,132.9,45.5,174.9c5.9-12.5,13.5-24.8,23-37.1c20.4-26.601,46.2-49.2,71.1-71.2c24.801-21.8,48.2-42.4,62-63.2
				c12.5-18.8,15.301-34.7,9.301-53.2c-24.801-76.8-4.9-127.7,16.1-156.8c23-31.8,52.3-44.7,55.5-46l13.5-5.6l13.5,5.6
				c3.3,1.4,32.6,14.2,55.6,46c21.101,29.1,40.9,80,16.101,156.8c-6,18.5-3.2,34.5,9.3,53.2c13.9,20.8,37.3,41.4,62,63.2
				c24.9,21.9,50.7,44.6,71.1,71.2c9.4,12.3,17.101,24.6,22.9,37c26.2-42.5,44.1-100.101,45.5-177.8c0.1-3.4,0.1-6.8,0.1-10.3
				c0-113.3-34-186.7-78.899-234.1C626.868,47.168,516.269,42.368,492.068,42.368z M299.268,387.868c-20.6,0-37.3-16.7-37.3-37.3
				c0-20.6,16.7-37.3,37.3-37.3c20.6,0,37.3,16.7,37.3,37.3C336.568,371.168,319.868,387.868,299.268,387.868z M674.269,387.868
				c-20.6,0-37.3-16.7-37.3-37.3c0-20.6,16.7-37.3,37.3-37.3s37.3,16.7,37.3,37.3C711.568,371.168,694.868,387.868,674.269,387.868z
				"/>
			<path d="M487.268,704.668l-1.6,1.3l-62,48.7c18.199,12.2,40.1,19.4,63.699,19.4c23.601,0,45.5-7.2,63.701-19.4l-62.1-48.7
				L487.268,704.668z"/>
			<path d="M713.169,584.668c-31.5-106.8-209.9-157.5-174-268.6c39.199-121.7-51.901-159.7-51.901-159.7s-91.1,38-51.8,159.8
				c35.899,111.101-142.6,161.8-174,268.7c-4.2,14.4-5.1,30.2-4.3,45.1c6.1,109.801,90.6,127.5,102.2,129.4c0.2,0,0.301,0,0.5,0
				c0.7,0,1.301-0.2,1.801-0.6l125.6-98.601l125.6,98.601c0.5,0.399,1.2,0.6,1.801,0.6c0.199,0,0.3,0,0.5,0
				c11.6-1.9,96.199-19.6,102.3-129.6C718.368,614.868,717.469,599.068,713.169,584.668z M487.268,588.368c0,0-32-8.6-57.8-27.1
				c-17.4-12.4-31.9-29.4-31.9-51.101c0-54.1,89.7-52.3,89.7-52.3s89.701-1.8,89.701,52.3c0,21.8-14.5,38.7-31.9,51.101
				C519.269,579.769,487.268,588.368,487.268,588.368z"/>
		</g>
	</g>
</g>
<g>
</g>
<g>
</g>
<g>
</g>
<g>
</g>
<g>
</g>
<g>
</g>
<g>
</g>
<g>
</g>
<g>
</g>
<g>
</g>
<g>
</g>
<g>
</g>
<g>
</g>
<g>
</g>
<g>
</g>
</svg>
